<?xml version="1.0" encoding="iso-8859-1"?>
<!-- Generator: Adobe Illustrator 18.1.1, SVG Export Plug-In . SVG Version: 6.00 Build 0)  -->
<svg version="1.1" id="Capa_1" xmlns="http://www.w3.org/2000/svg" xmlns:xlink="http://www.w3.org/1999/xlink" x="0px" y="0px"
	 viewBox="0 0 301.199 301.199" style="enable-background:new 0 0 301.199 301.199;" xml:space="preserve">
<g>
	<path style="fill:#010002;" d="M289.416,82.021L247.715,33.07c-2.067-2.42-5.096-3.824-8.278-3.824h-72.068V10.878
		C167.369,4.873,162.495,0,156.491,0h-33.086c-6.005,0-10.878,4.873-10.878,10.878v18.368H20.063
		c-6.005,0-10.878,4.873-10.878,10.878v97.903c0,6.01,4.873,10.878,10.878,10.878h92.236v141.416c0,6.01,4.873,10.878,10.878,10.878
		h33.086c6.005,0,10.878-4.868,10.878-10.878V148.905h72.296c3.187,0,6.217-1.392,8.278-3.824l41.701-48.952
		C292.881,92.072,292.881,86.09,289.416,82.021z M145.384,279.443h-11.33V151.511h11.33V279.443z M134.283,21.756h11.33v7.49h-11.33
		V21.756z M234.416,127.149H30.941V51.002h92.464h33.086h77.925l32.428,38.073L234.416,127.149z"/>
</g>
<g>
</g>
<g>
</g>
<g>
</g>
<g>
</g>
<g>
</g>
<g>
</g>
<g>
</g>
<g>
</g>
<g>
</g>
<g>
</g>
<g>
</g>
<g>
</g>
<g>
</g>
<g>
</g>
<g>
</g>
</svg>
